<svg xmlns="http://www.w3.org/2000/svg" width="214.49" height="35" viewBox="0 0 214.49 35"><rect class="svg__rect" x="0" y="0" width="100.61" height="35" fill="#31C4F3"/><rect class="svg__rect" x="98.61" y="0" width="115.88" height="35" fill="#389AD5"/><path class="svg__text" d="M13.78 19.42L13.78 19.42L15.27 19.42Q15.27 20.15 15.75 20.55Q16.23 20.95 17.12 20.95L17.12 20.95Q17.90 20.95 18.29 20.63Q18.68 20.32 18.68 19.80L18.68 19.80Q18.68 19.24 18.28 18.94Q17.89 18.63 16.85 18.32Q15.82 18.01 15.21 17.63L15.21 17.63Q14.05 16.90 14.05 15.72L14.05 15.72Q14.05 14.69 14.89 14.02Q15.73 13.35 17.07 13.35L17.07 13.35Q17.96 13.35 18.66 13.68Q19.36 14.01 19.75 14.61Q20.15 15.22 20.15 15.96L20.15 15.96L18.68 15.96Q18.68 15.29 18.26 14.91Q17.84 14.54 17.06 14.54L17.06 14.54Q16.33 14.54 15.93 14.85Q15.53 15.16 15.53 15.71L15.53 15.71Q15.53 16.18 15.96 16.50Q16.40 16.81 17.39 17.10Q18.39 17.40 18.99 17.78Q19.60 18.16 19.88 18.65Q20.16 19.13 20.16 19.79L20.16 19.79Q20.16 20.86 19.34 21.49Q18.52 22.12 17.12 22.12L17.12 22.12Q16.20 22.12 15.42 21.77Q14.64 21.43 14.21 20.83Q13.78 20.22 13.78 19.42ZM24.31 19.16L24.31 19.16L24.31 13.47L25.79 13.47L25.79 19.18Q25.79 20.03 26.22 20.48Q26.66 20.93 27.50 20.93L27.50 20.93Q29.21 20.93 29.21 19.13L29.21 19.13L29.21 13.47L30.69 13.47L30.69 19.17Q30.69 20.53 29.82 21.32Q28.95 22.12 27.50 22.12L27.50 22.12Q26.04 22.12 25.17 21.33Q24.31 20.55 24.31 19.16ZM38.37 22L35.26 22L35.26 13.47L38.18 13.47Q39.63 13.47 40.39 14.05Q41.14 14.63 41.14 15.78L41.14 15.78Q41.14 16.36 40.82 16.83Q40.51 17.30 39.90 17.56L39.90 17.56Q40.59 17.75 40.97 18.26Q41.35 18.78 41.35 19.51L41.35 19.51Q41.35 20.71 40.58 21.36Q39.81 22 38.37 22L38.37 22ZM36.74 18.15L36.74 20.82L38.39 20.82Q39.08 20.82 39.48 20.47Q39.87 20.13 39.87 19.51L39.87 19.51Q39.87 18.18 38.51 18.15L38.51 18.15L36.74 18.15ZM36.74 14.66L36.74 17.06L38.19 17.06Q38.89 17.06 39.27 16.75Q39.66 16.43 39.66 15.86L39.66 15.86Q39.66 15.23 39.30 14.95Q38.94 14.66 38.18 14.66L38.18 14.66L36.74 14.66ZM47.50 14.66L44.86 14.66L44.86 13.47L51.63 13.47L51.63 14.66L48.97 14.66L48.97 22L47.50 22L47.50 14.66ZM56.95 22L55.47 22L55.47 13.47L56.95 13.47L56.95 22ZM63.44 14.66L60.81 14.66L60.81 13.47L67.57 13.47L67.57 14.66L64.91 14.66L64.91 22L63.44 22L63.44 14.66ZM76.68 22L71.33 22L71.33 13.47L72.81 13.47L72.81 20.82L76.68 20.82L76.68 22ZM86.39 22L80.81 22L80.81 13.47L86.35 13.47L86.35 14.66L82.29 14.66L82.29 17.02L85.80 17.02L85.80 18.19L82.29 18.19L82.29 20.82L86.39 20.82L86.39 22Z" fill="#FFFFFF"/><path class="svg__text" d="M112.37 17.80L112.37 17.80Q112.37 16.54 112.97 15.54Q113.57 14.55 114.62 13.99Q115.67 13.43 116.99 13.43L116.99 13.43Q118.14 13.43 119.06 13.84Q119.99 14.25 120.60 15.02L120.60 15.02L119.09 16.39Q118.28 15.40 117.11 15.40L117.11 15.40Q116.42 15.40 115.89 15.70Q115.36 16 115.06 16.54Q114.77 17.09 114.77 17.80L114.77 17.80Q114.77 18.51 115.06 19.05Q115.36 19.60 115.89 19.90Q116.42 20.20 117.11 20.20L117.11 20.20Q118.28 20.20 119.09 19.22L119.09 19.22L120.60 20.58Q119.99 21.35 119.07 21.76Q118.14 22.17 116.99 22.17L116.99 22.17Q115.67 22.17 114.62 21.61Q113.57 21.05 112.97 20.05Q112.37 19.06 112.37 17.80ZM127.52 22L125.14 22L125.14 13.60L128.98 13.60Q130.12 13.60 130.96 13.98Q131.80 14.35 132.26 15.06Q132.71 15.76 132.71 16.71L132.71 16.71Q132.71 17.62 132.29 18.30Q131.86 18.98 131.07 19.36L131.07 19.36L132.88 22L130.34 22L128.81 19.77L127.52 19.77L127.52 22ZM127.52 15.47L127.52 17.93L128.84 17.93Q129.57 17.93 129.94 17.61Q130.31 17.29 130.31 16.71L130.31 16.71Q130.31 16.12 129.94 15.79Q129.57 15.47 128.84 15.47L128.84 15.47L127.52 15.47ZM144.25 22L137.50 22L137.50 13.60L144.09 13.60L144.09 15.44L139.86 15.44L139.86 16.85L143.59 16.85L143.59 18.63L139.86 18.63L139.86 20.17L144.25 20.17L144.25 22ZM150.47 22L148.04 22L151.75 13.60L154.09 13.60L157.81 22L155.34 22L154.68 20.37L151.13 20.37L150.47 22ZM152.91 15.93L151.82 18.61L153.98 18.61L152.91 15.93ZM163.76 15.48L161.17 15.48L161.17 13.60L168.70 13.60L168.70 15.48L166.13 15.48L166.13 22L163.76 22L163.76 15.48ZM175.45 22L173.07 22L173.07 13.60L175.45 13.60L175.45 22ZM180.19 17.80L180.19 17.80Q180.19 16.55 180.80 15.55Q181.40 14.56 182.46 14.00Q183.53 13.43 184.86 13.43L184.86 13.43Q186.19 13.43 187.25 14.00Q188.31 14.56 188.92 15.55Q189.53 16.55 189.53 17.80L189.53 17.80Q189.53 19.05 188.92 20.04Q188.31 21.04 187.25 21.60Q186.19 22.17 184.86 22.17L184.86 22.17Q183.53 22.17 182.46 21.60Q181.40 21.04 180.80 20.04Q180.19 19.05 180.19 17.80ZM182.59 17.80L182.59 17.80Q182.59 18.51 182.89 19.05Q183.19 19.60 183.71 19.90Q184.22 20.20 184.86 20.20L184.86 20.20Q185.50 20.20 186.01 19.90Q186.53 19.60 186.83 19.05Q187.12 18.51 187.12 17.80L187.12 17.80Q187.12 17.09 186.83 16.54Q186.53 16 186.01 15.70Q185.50 15.40 184.86 15.40L184.86 15.40Q184.22 15.40 183.71 15.70Q183.19 16 182.89 16.54Q182.59 17.09 182.59 17.80ZM196.59 22L194.25 22L194.25 13.60L196.21 13.60L199.92 18.07L199.92 13.60L202.25 13.60L202.25 22L200.30 22L196.59 17.52L196.59 22Z" fill="#FFFFFF" x="111.61"/></svg>